<svg xmlns="http://www.w3.org/2000/svg" viewBox="0 0 800 800">
  <defs>
    <linearGradient id="bg" x1="0" y1="0" x2="0" y2="1">
      <stop offset="0" stop-color="#EDF3EA"/>
      <stop offset="1" stop-color="#D3E2CE"/>
    </linearGradient>
  </defs>
  <rect width="800" height="800" fill="url(#bg)"/>
  <circle cx="400" cy="330" r="210" fill="#ffffff" opacity="0.55"/>
<ellipse cx="400" cy="660" rx="220" ry="26" fill="#000" opacity="0.10"/>
  <circle cx="400" cy="265" r="84" fill="#F3D8B8"/>
  <path d="M316 262 a84 84 0 0 1 168 0 q-20 -26 -52 -30 q-56 -10 -96 12 q-14 8 -20 18z" fill="#4A2C17"/>
  <path d="M320 300 q80 46 160 0 l0 -20 q-80 -40 -160 0 z" fill="#4A2C17" opacity="0.9"/>
  <path d="M352 362 L448 362 L470 520 L330 520 Z" fill="#2E7D32"/>
  <rect x="330" y="470" width="140" height="18" fill="#E8D5B7"/>
  <rect x="300" y="382" width="46" height="120" rx="23" fill="#2E7D32" opacity="0.9"/>
  <rect x="454" y="382" width="46" height="120" rx="23" fill="#2E7D32" opacity="0.9"/>
  <rect x="350" y="520" width="44" height="110" rx="14" fill="#14351B"/>
  <rect x="406" y="520" width="44" height="110" rx="14" fill="#14351B"/></svg>